<svg viewBox="0 0 1296 1728" xmlns="http://www.w3.org/2000/svg"><style>.st1{fill:#fff}</style><switch><g><path d="M852 908.5c-2.63 51.87-26 101.5-81 135.5-33.11 20.47-77.59 24.38-123 24-48.42-.4-91-10-121-28-48.41-29.05-77.41-80.55-87-131.5-8-42.5-.24-89.93 29-120.5 22-23 62-44 95-34 24.77 7.51 41.56 20 70 20 12.22 0 41.38-22.34 53-24 49-7 89.41 11.04 119 32 48 34 48 87 46 126.5z" fill="#870202"/><path class="st1" d="M789.21 930.68c-1.5-2.6-3.15-5.5-3.36-8.37-.27-3.57-2.07-4.43-4.59-4.85-5.33-.32-11.72 5.33-12.41 10.7-.85 6.55 3.71 10.87 9.97 8.38.91-.36 2.21-1.3 3.55-1.15 1.33.15 2.7 1.37 3.49 1.3 2.19-.21 2.85-.07 4.44-1.27 1.86-1.42-.15-3.1-1.09-4.74zm-12.65-.73c-.44-.01-1.39-.29-1.8-.89 0-.01-.01-.01-.01-.02-.57-.82-.46-1.94.28-2.61l.33-.3c.46-.43 1.33-.68 1.84-.74.39-.05 1.5.16 2.02.65.53.48 1 .79 1.16 1.84-.2.95-.97 1.24-1.57 1.62-.67.43-1.69.47-2.25.45zM527.75 993.65c-2.68-.97-5.44-1.77-8.03-2.94-3.64-1.63-7.13-3.6-10.75-5.31-6.52-3.08-8.06-5.82-6.82-13.05 1.42-8.24 3.12-16.47 4.33-24.7 2.16-14.75 7.72-28.08 10.88-42.29 1.09-4.89 3.59-9.58 6.03-14.03 3.99-7.27 6.58-6.76 13.39-3.12 4.35 2.33 5.36 5.99 3.99 11.33-2.95 11.48-3.73 20.9-8.93 34.41-1.23 4.35-3.7 8.34-5.16 12.64-1.27 3.76-2.31 7.69-2.76 11.62-.8 7.1 3.04 12.89 9.74 15.45 2.79 1.06 5.61 2.04 8.46 2.93 2.14.67 3.02 1.83 2.63 4.16-1.35 8.13-8.23 13.29-17 12.9zM687.98 947.47c.89-.39 1.49-1.24 1.54-2.22.08-1.42.15-2.84.2-4.26.08-2.11-.03-4.22.09-6.32.54-9.3 1.14-18.6 1.72-27.9.27-4.36 2.02-6.64 6.18-7.82 3.62-1.03 7.26-1.97 11.45-3.09.97-.26 1.94.45 1.99 1.45.22 4.35.4 8.21.65 12.07.92 14.41 1.97 28.82 2.8 43.24.71 12.33 1.19 24.67 1.81 37 .13 2.49.49 4.96.65 7.45.31 4.68-1.65 8.1-6.15 9.52-5.43 1.72-10.95 3.18-16.49 4.53-3.18.77-4.81-1.25-5.84-3.98-3.39-8.99-6.45-18.14-10.36-26.9-2.84-6.37-3.22-13.13-5.55-19.66-2.14-5.98-4.52-11.64-6.91-16.91-.97-2.15-1.12-4.06-5.02-4.32-.73-.05-2.88 1.37-3.38 2.55-.96 2.25-1.55 4.79-1.68 7.25-.7 13.21-.97 26.45-1.91 39.65-.45 6.29-1.73 12.57-3.23 18.7-.85 3.45-3.39 5.32-7.49 3.88-2.19-.77-4.67-.8-7.03-.99-2.73-.22-3.62-1.82-3.6-4.26.04-7.82-.23-15.67.21-23.47 1.2-21.34.82-42.82 4.83-63.95 1.03-5.4 1.78-10.9 3.45-16.09.6-1.86 3.36-3.74 5.46-4.26 6.15-1.5 12.47-2.29 18.71-3.43 2.36-.43 4.03.21 5.36 2.33 5.9 9.46 9.06 19.91 11.27 30.72 1.17 5.74 2.19 11.51 3.59 17.19.11.45.28.95.48 1.45.35.84 1.33 1.22 2.17.85h.03zM617.54 1000.9c-.45-11.59-.86-23.2-1.73-34.76-.74-9.94-2.16-19.83-3.15-29.76-.44-4.42-1.36-9-.67-13.29 1.11-6.93 1.09-13.62-.73-20.35-1.72-6.37-4.12-8.17-10.89-8.52-4.23-.22-8.51-.34-12.64-1.13-5.43-1.05-7.98.3-9.46 5.75-5.5 20.23-11.12 40.43-16.54 60.68-3.29 12.3-6.4 24.64-9.36 37.02-1.16 4.86 1.94 9.28 6.97 10.82 4.56 1.4 9.46-.5 11.32-4.87a99.77 99.77 0 004.53-13.02c1.92-7.1 3.61-14.27 5.1-21.47.91-4.39 3.44-6.49 7.64-7.56 4.82-1.24 6.88-.2 7.28 4.79.29 3.6.21 7.22.3 10.83-.13 0-.25.01-.38.01.3 7.61.18 15.26 1.01 22.81 1.22 11.02 3.47 11.97 11 11.1.14-.02.28-.02.42 0 7.09.67 10.25-2.05 9.98-9.08zm-27.57-58.59c-3.54 1.62-6.64-1.01-5.91-4.92.7-3.76 2.08-7.41 3.41-11.02.2-.54.82-.93 1.46-1.31.57-.34 1.31-.23 1.76.26.48.53.93 1.06 1.05 1.65.57 2.85.92 5.16.71 9-.04.79-.11 1.81-.28 2.58-.3 1.33-.9 3.17-2.2 3.76z"/><path class="st1" d="M815.37 951.57c.37-11.32-3.01-19.96-9.78-27.12-4.43-4.68-9.6-8.67-13.97-13.39-2.38-2.57-4.7-5.83-5.47-9.14-3.04-12.94 1.31-27.51 15.42-33.64 12.11-5.27 23.24-2.58 33.86 3.86 4.82 2.92 5.89 10.09 2.72 14.82-2.41 3.6-5.17 3.57-9.76 1.29-4.15-2.07-8.7-4.01-13.23-4.51-8.55-.93-13.83 3.88-14.41 12.39-.12 1.69 1.11 3.8 2.34 5.17 1.72 1.91 3.81 3.72 6.1 4.84 10.9 5.35 17.49 14.54 23.85 24.46 6.38 9.95 2.22 19.07-.56 28.26-2.33 7.71-7.3 14.22-13.15 19.72-2.63 2.48-6.16 4.75-9.62 5.48-12.79 2.7-25.36 3.08-35.65-7.26-4.81-4.83-1.82-18.64 4.71-20.42 1.64-.45 3.8.5 5.58 1.18 4.62 1.77 9.06 4.06 13.76 5.54 4.44 1.39 8.64-.38 12.49-2.61 3.92-2.27 5.07-5.98 4.77-8.92zM491.13 871.75c-10.83-2.05-23 3.9-28.11 13.6-3.77 7.16-5.08 14.81-5.01 22.53-.09 1.75-.23 3.25-.24 4.74-.11 19.38 2.81 38.06 13.55 54.7 1.59 2.45 4.32 4.88 7.02 5.71 2.78.85 6.82.75 9.11-.76 3.17-2.08 2.66-6.13 1.14-9.59-.15-.34-.31-.68-.43-1.04-3.52-10.85-8.64-21.24-8-33.21.3-5.57 2.34-9.26 7.11-11.67 3.78-1.92 7.56-3.86 11.41-5.64 6.32-2.92 9.55-7.53 10.24-14.71 1.05-10.68-7.16-22.65-17.79-24.66zm-10.98 29.06c-3.7-.2-4.33-1.9-3.86-10.37.19-3.52 1.43-4.28 6.42-3.99 4.73.28 7.91 2.94 7.7 6.45-.26 4.4-5.18 8.19-10.26 7.91zM740.38 975.82c2.23-15.9.13-30.63-2.57-45.32-.63-3.41-1.14-6.84-1.29-10.3-.13-2.96-1.17-4.18-3.98-3.41-2.51.69-5.07 1.53-7.62 1.55-1.28.01-3.53-1.51-3.7-2.59-.76-5.01-1.57-10.15-1.15-15.15.45-5.44 4.93-7.64 9.87-8.79 13.48-3.14 26.96-6.28 40.41-9.53 2.36-.57 3.74.05 3.98 2.43.41 3.97 1.05 7.97.85 11.92-.26 5.07-4.21 7.5-8.44 8.97-11.87 4.12-13.57 13.45-11.71 22.67 1.48 7.33 3.46 14.56 4.74 21.92 1.72 9.92 4.04 19.62 1.13 29.37-1.37 4.6-.89 10.22-10.67 15.56-4.86 2.81-9.97-.09-10.22-5.78-.12-2.75.38-10.5.32-12.5-.02-.34 0-.68.05-1.02z"/><path d="M630 792l-3.17 11.87a23.7 23.7 0 01-2.47 5.93l-2.37 4.06c-1.98 3.4-4.56 6.42-7.61 8.92l-4.53 3.71a31.31 31.31 0 01-3.93 2.73l-8.49 4.95c-.96.56-1.95 1.07-2.96 1.54l-21.2 8.58c-1.74.7-3.43 1.53-5.06 2.47l-20.38 11.77c-.56.32-1.11.67-1.66 1.03L541 863l4.41-18.16c.64-2.63 1.46-5.22 2.44-7.74l2.76-7.06c2.49-6.36 5.93-12.3 10.21-17.61l5.54-7.06c1.87-2.39 3.95-4.61 6.2-6.64l1.6-1.55c4.36-4.22 9.29-7.8 14.64-10.64l6.44-3.42-10.7-4.68a36.42 36.42 0 01-10.04-6.54l-3.01-4.1a29.372 29.372 0 01-3.37-5.92l-5.77-14.03-4.28-11.71c-1.68-4.6-4.15-8.88-7.3-12.63 0 0-2.49-3.39-5.07-6.62a43.42 43.42 0 00-8.21-7.87L532 705l7.87-.98c5.4-.68 10.86-.79 16.29-.34l.23.02c2.36.2 4.62 1.05 6.51 2.48l8.49 6.37c.41.3.8.63 1.17.97L585 725l5.26 5.79c3.13 3.44 6.92 6.22 11.14 8.17l5.63 2.6c.65.3 1.26.66 1.84 1.08l7.81 5.68c1.07.78 2.05 1.68 2.91 2.68.61.71 1.13 1.49 1.61 2.3l4.29 7.31 4.8-22.01c.16-.73.3-1.47.41-2.21l2.37-15.42c.28-1.82.62-3.63 1.01-5.43l2.08-14.49.72-11.89a4.804 4.804 0 012.83-3.81l12.74-2.07-2.07 15.7-.88 6.51c-.4 2.97-.59 5.95-.56 8.95l.06 6.3c.01.85.09 1.7.24 2.54l-.23 8.41c-.07 2.68.25 5.35.96 7.93L652 747l2.22-5.37c.39-1.29.7-2.59.96-3.91l1.71-9.93c.78-4.56 2.45-8.92 4.9-12.85l4.88-9.46 2.89-5.62c.3-.57.54-1.17.72-1.79l3.48-11.59c1-3.32 1.68-6.73 2.04-10.18l.94-9.03.84.77c1.94 1.79 3.16 4.24 3.41 6.87l.01.09 1.96 7.96c.25 1.24 2.4 7.75 2.96 8.89l2.67 7.41 3.24 8.64c.77 2.06 1.29 4.2 1.55 6.38l.86 7.31c.49 4.21-.07 8.47-1.64 12.4l-3.27 8.18c-.22.55-.5 1.09-.82 1.59L678 760l10.74-3.16c4.15-1.22 8.46-1.84 12.79-1.84h4.13c2.21 0 4.41.36 6.51 1.06l6.12 2.04c1.8.6 3.49 1.47 5.02 2.58l8.17 5.94c.34.25.7.49 1.05.72l9.55 6.08c.61.39 1.23.75 1.86 1.1L754 780l-17.66 6.73c-2.22.85-4.49 1.59-6.78 2.21l-11.26 3.07a40.713 40.713 0 01-14.82 1.24l-8.59-.86a32.78 32.78 0 01-7.57-1.69l-12.71-4.48c-.41-.14-.81-.3-1.21-.47L660 780l6.66 7.99c2.22 2.66 4.77 5.03 7.58 7.04l8.93 6.38c.55.39 1.07.81 1.57 1.26l5.43 4.89c2.53 2.27 4.64 4.97 6.26 7.96l1.76 3.26c1.86 3.45 3.16 7.18 3.84 11.05l.88 4.98c.73 4.12 1.83 8.16 3.3 12.07L710 857l-15.49-8.52c-3-1.65-6.17-2.94-9.47-3.86l-11.27-3.13c-1.18-.33-2.34-.74-3.47-1.22l-13.58-4.91a38.6 38.6 0 01-3.75-1.58l-.74-.36a35.229 35.229 0 01-16.55-16.71l-.91-1.93c-1.18-2.51-2-5.17-2.43-7.91L630 792z" fill="#114406"/></g></switch></svg>